<?xml version="1.0" encoding="utf-8"?>
<!-- Generator: Adobe Illustrator 21.0.0, SVG Export Plug-In . SVG Version: 6.00 Build 0)  -->
<svg version="1.1" id="Layer_1" xmlns="http://www.w3.org/2000/svg" xmlns:xlink="http://www.w3.org/1999/xlink" x="0px" y="0px"
	 viewBox="0 0 288.7 452.7" style="enable-background:new 0 0 288.7 452.7;" xml:space="preserve">
<style type="text/css">
	.st0{fill:none;}
	.st1{fill:none;stroke:#000000;}
	.st2{font-family:'MyriadPro-Regular';}
	.st3{font-size:12px;}
	.st4{fill:#E5A8A3;}
	.st5{fill:#C0C0C0;}
	.st6{fill:#DBDBDB;}
	.st7{fill:#E23123;}
	.st8{fill:#1C1C1C;}
	.st9{font-family:'SourceHanSansTW-Bold-B5pc-H';}
	.st10{font-size:20px;}
	.st11{fill:#3B3B3B;}
	.st12{font-family:'SourceHanSansTW-Light-B5pc-H';}
	.st13{font-size:14px;}
	.st14{font-size:16px;}
	.st15{font-size:10px;}
</style>
<path class="st0" d="z"/>
<g transform="translate(0,430.3125)">
	<line class="st1" x1="50.4" y1="-3.8" x2="50.4" y2="-3.8"/>
	<text transform="matrix(1 0 0 1 21.0104 1.525879e-04)" class="st2 st3">0%</text>
</g>
<g transform="translate(0,221.15625)">
	<line class="st1" x1="50.4" y1="0" x2="50.4" y2="0"/>
	<text transform="matrix(1 0 0 1 14.3366 3.84)" class="st2 st3">50%</text>
</g>
<g transform="translate(0,12)">
	<line class="st1" x1="50.4" y1="8" x2="50.4" y2="8"/>
	<text transform="matrix(1 0 0 1 7.6628 11.84)" class="st2 st3">100%</text>
</g>
<g transform="translate(61.80098684210526,0)">
	<line class="st1" x1="-15.3" y1="439.3" x2="-15.3" y2="439.3"/>
	<text transform="matrix(1 0 0 1 -19.5957 443.3125)" class="st2 st3">1998</text>
</g>
<g transform="translate(135.1628289473684,0)">
	<line class="st1" x1="-15.3" y1="439.3" x2="-15.3" y2="439.3"/>
	<text transform="matrix(1 0 0 1 -19.5957 443.3125)" class="st2 st3">2004</text>
</g>
<g transform="translate(208.52467105263156,0)">
	<line class="st1" x1="3" y1="439.3" x2="3" y2="439.3"/>
	<text transform="matrix(1 0 0 1 -1.2551 443.3125)" class="st2 st3">2012</text>
</g>
<g transform="translate(281.88651315789474,0)">
	<line class="st1" x1="-27.5" y1="439.3" x2="-27.5" y2="439.3"/>
	<text transform="matrix(1 0 0 1 -31.8228 443.3125)" class="st2 st3">2016</text>
</g>
<rect x="44.4" y="138.4" class="st4" width="12.2" height="291.9"/>
<rect x="44.4" y="46.5" class="st5" width="12.2" height="91.9"/>
<rect x="44.4" y="12" class="st6" width="12.2" height="34.5"/>
<rect x="56.6" y="137" class="st4" width="12.2" height="293.3"/>
<rect x="56.6" y="47.3" class="st5" width="12.2" height="89.6"/>
<rect x="56.6" y="12" class="st6" width="12.2" height="35.3"/>
<rect x="68.8" y="136.4" class="st4" width="12.2" height="293.9"/>
<rect x="68.8" y="48.1" class="st5" width="12.2" height="88.3"/>
<rect x="68.8" y="12" class="st6" width="12.2" height="36.1"/>
<rect x="81" y="135.9" class="st4" width="12.2" height="294.4"/>
<rect x="81" y="48.8" class="st5" width="12.2" height="87"/>
<rect x="81" y="12" class="st6" width="12.2" height="36.8"/>
<rect x="93.3" y="135.2" class="st4" width="12.2" height="295.2"/>
<rect x="93.3" y="49.7" class="st5" width="12.2" height="85.4"/>
<rect x="93.3" y="12" class="st6" width="12.2" height="37.7"/>
<rect x="105.5" y="133.6" class="st4" width="12.2" height="296.7"/>
<rect x="105.5" y="50.6" class="st5" width="12.2" height="82.9"/>
<rect x="105.5" y="12" class="st6" width="12.2" height="38.6"/>
<rect x="117.7" y="132.5" class="st4" width="12.2" height="297.8"/>
<rect x="117.7" y="51.6" class="st5" width="12.2" height="80.9"/>
<rect x="117.7" y="12" class="st6" width="12.2" height="39.6"/>
<rect x="129.9" y="131" class="st4" width="12.2" height="299.3"/>
<rect x="129.9" y="52.7" class="st5" width="12.2" height="78.2"/>
<rect x="129.9" y="12" class="st6" width="12.2" height="40.7"/>
<rect x="142.2" y="129.6" class="st4" width="12.2" height="300.7"/>
<rect x="142.2" y="53.8" class="st5" width="12.2" height="75.8"/>
<rect x="142.2" y="12" class="st6" width="12.2" height="41.8"/>
<rect x="154.4" y="128.1" class="st4" width="12.2" height="302.2"/>
<rect x="154.4" y="54.7" class="st5" width="12.2" height="73.4"/>
<rect x="154.4" y="12" class="st6" width="12.2" height="42.7"/>
<rect x="166.6" y="126.5" class="st4" width="12.2" height="303.8"/>
<rect x="166.6" y="55.6" class="st5" width="12.2" height="70.9"/>
<rect x="166.6" y="12" class="st6" width="12.2" height="43.6"/>
<rect x="178.9" y="124.8" class="st4" width="12.2" height="305.5"/>
<rect x="178.9" y="56.5" class="st5" width="12.2" height="68.4"/>
<rect x="178.9" y="12" class="st6" width="12.2" height="44.5"/>
<rect x="191.1" y="122.4" class="st4" width="12.2" height="307.9"/>
<rect x="191.1" y="56.9" class="st5" width="12.2" height="65.5"/>
<rect x="191.1" y="12" class="st6" width="12.2" height="44.9"/>
<rect x="203.3" y="120.6" class="st4" width="12.2" height="309.7"/>
<rect x="203.3" y="57.5" class="st5" width="12.2" height="63.1"/>
<rect x="203.3" y="12" class="st6" width="12.2" height="45.5"/>
<rect x="215.5" y="119.9" class="st7" width="12.2" height="310.5"/>
<rect x="215.5" y="58.6" class="st5" width="12.2" height="61.2"/>
<rect x="215.5" y="12" class="st6" width="12.2" height="46.6"/>
<rect x="227.8" y="120.1" class="st4" width="12.2" height="310.2"/>
<rect x="227.8" y="60.2" class="st5" width="12.2" height="59.9"/>
<rect x="227.8" y="12" class="st6" width="12.2" height="48.2"/>
<rect x="240" y="120.6" class="st4" width="12.2" height="309.7"/>
<rect x="240" y="62.1" class="st5" width="12.2" height="58.5"/>
<rect x="240" y="12" class="st6" width="12.2" height="50.1"/>
<rect x="252.2" y="121.1" class="st4" width="12.2" height="309.2"/>
<rect x="252.2" y="64.3" class="st5" width="12.2" height="56.8"/>
<rect x="252.2" y="12" class="st6" width="12.2" height="52.3"/>
<rect x="264.4" y="123" class="st4" width="12.2" height="307.3"/>
<rect x="264.4" y="67.2" class="st5" width="12.2" height="55.8"/>
<rect x="264.4" y="12" class="st6" width="12.2" height="55.2"/>
<path class="st0" d="z"/>
<rect x="86.7" y="239.5" class="st0" width="103.9" height="21"/>
<text transform="matrix(1 0 0 1 86.7024 255.4696)" class="st8 st9 st10">青壯年人口</text>
<rect x="122.2" y="262.7" class="st0" width="64.3" height="17.7"/>
<text transform="matrix(1 0 0 1 122.2274 273.8312)" class="st11 st12 st13">15 ~ 64 歲</text>
<rect x="63.6" y="76.2" class="st0" width="103.9" height="21"/>
<text transform="matrix(1 0 0 1 63.6028 88.9592)" class="st8 st9 st14">青少年人口</text>
<rect x="102.1" y="95.7" class="st0" width="45.3" height="17.7"/>
<text transform="matrix(1 0 0 1 102.0843 103.6578)" class="st11 st12 st15">0 ~ 14 歲</text>
<rect x="182.4" y="19.6" class="st0" width="78.6" height="21"/>
<text transform="matrix(1 0 0 1 182.3619 32.3467)" class="st8 st9 st14">老年人口</text>
<rect x="207.8" y="39.1" class="st0" width="46.5" height="17.7"/>
<text transform="matrix(1 0 0 1 207.8152 47.0453)" class="st11 st12 st15">65歲以上</text>
<rect x="134.5" y="225" class="st0" width="64.3" height="17.7"/>
<text transform="matrix(1 0 0 1 134.4543 232.9469)" class="st11 st12 st15">主要勞動力</text>
<rect x="197.9" y="104.5" class="st0" width="72" height="18"/>
<text transform="matrix(1 0 0 1 197.8719 112.484)" class="st12 st15">抵達最高峰</text>
</svg>
